<svg xmlns="http://www.w3.org/2000/svg" xmlns:xlink="http://www.w3.org/1999/xlink" width="0" height="0" style="position:absolute">

<symbol id="arr_fs" viewBox="0 0 188.7 306">
        <path d="M0 35.7L117.3 153 0 270.3 35.7 306l153-153L35.7 0"/>
</symbol>

<symbol id="arr_s" viewBox="-5.8 6.5 12.6 20">
        <path d="M-5.8 6.5v20l12.6-10"/>
</symbol>

<symbol id="doc" viewBox="0 0 32 40">
        <path fill="#295598" d="M29.6 40H2.5C1.1 40 0 38.9 0 37.5v-35C0 1.1 1.1 0 2.5 0H23c.2 0 .4.1.6.2l8.2 8.3c.2.2.2.4.2.6v28.3c.2 1.4-1 2.6-2.4 2.6zM2.6 1.7c-.5 0-.8.4-.8.8v34.9c0 .5.4.8.8.8h27.1c.5 0 .8-.4.8-.8v-28l-7.7-7.8c0 .1-20.2.1-20.2.1z"/><path  fill="#295598" d="M30.5 10.8h-7.6c-.5 0-.8-.4-.8-.8V1c0-.5.4-.8.8-.8.5 0 .8.4.8.8v8.1h6.8c.5 0 .8.4.8.8.1.5-.3.9-.8.9z"/><g><path  fill="#295598" d="M4.9 34.1v-8.5h2.6c.8 0 1.4.2 2 .5s1.1.8 1.4 1.4.5 1.3.5 2.1v.4c0 .8-.2 1.5-.5 2.1s-.8 1.1-1.4 1.4-1.3.5-2 .5l-2.6.1zM6.7 27v5.7h.8c.7 0 1.2-.2 1.6-.7s.5-1.1.6-1.9v-.5c0-.9-.2-1.5-.5-2s-.9-.7-1.6-.7h-.9v.1zM19.7 30c0 .8-.1 1.6-.4 2.2s-.7 1.1-1.3 1.5c-.6.4-1.2.5-1.9.5s-1.3-.2-1.9-.5-1-.8-1.3-1.5-.5-1.4-.5-2.2v-.4c0-.8.2-1.6.5-2.2s.7-1.1 1.3-1.5 1.2-.5 1.9-.5 1.3.2 1.9.5 1 .8 1.3 1.5.5 1.4.5 2.2v.4h-.1zm-1.8-.4c0-.9-.2-1.6-.5-2s-.8-.7-1.4-.7c-.6 0-1 .2-1.4.7s-.5 1.1-.5 2v.4c0 .9.2 1.5.5 2s.8.7 1.4.7c.6 0 1-.2 1.4-.7s.5-1.1.5-2v-.4zM27.7 31.2c-.1.9-.4 1.6-1 2.2-.6.6-1.4.8-2.4.8-1.1 0-2-.4-2.6-1.1s-.9-1.7-.9-3v-.5c0-.8.1-1.5.4-2.2s.7-1.1 1.2-1.4 1.2-.5 1.9-.5c1 0 1.8.3 2.4.8s.9 1.3 1 2.2h-1.8c0-.6-.2-1-.5-1.2s-.7-.4-1.2-.4c-.6 0-1 .2-1.3.6s-.4 1.1-.4 2v.6c0 .9.1 1.6.4 2s.7.6 1.3.6c.5 0 .9-.1 1.2-.4s.4-.6.5-1.2h1.8v.1z"/></g>
</symbol>

<symbol id="docx" viewBox="0 0 32 40">
        <path fill="#295598" d="M29.6 40H2.5C1.1 40 0 38.9 0 37.5v-35C0 1.1 1.1 0 2.5 0H23c.2 0 .4.1.6.2l8.2 8.3c.2.2.2.4.2.6v28.3c.2 1.4-1 2.6-2.4 2.6zM2.6 1.7c-.5 0-.8.4-.8.8v34.9c0 .5.4.8.8.8h27.1c.5 0 .8-.4.8-.8v-28l-7.7-7.8c0 .1-20.2.1-20.2.1z"/><path  fill="#295598" d="M30.5 10.8h-7.6c-.5 0-.8-.4-.8-.8V1c0-.5.4-.8.8-.8.5 0 .8.4.8.8v8.1h6.8c.5 0 .8.4.8.8.1.5-.3.9-.8.9z"/><g><path  fill="#295598" d="M4.9 34.1v-8.5h2.6c.8 0 1.4.2 2 .5s1.1.8 1.4 1.4.5 1.3.5 2.1v.4c0 .8-.2 1.5-.5 2.1s-.8 1.1-1.4 1.4-1.3.5-2 .5l-2.6.1zM6.7 27v5.7h.8c.7 0 1.2-.2 1.6-.7s.5-1.1.6-1.9v-.5c0-.9-.2-1.5-.5-2s-.9-.7-1.6-.7h-.9v.1zM19.7 30c0 .8-.1 1.6-.4 2.2s-.7 1.1-1.3 1.5c-.6.4-1.2.5-1.9.5s-1.3-.2-1.9-.5-1-.8-1.3-1.5-.5-1.4-.5-2.2v-.4c0-.8.2-1.6.5-2.2s.7-1.1 1.3-1.5 1.2-.5 1.9-.5 1.3.2 1.9.5 1 .8 1.3 1.5.5 1.4.5 2.2v.4h-.1zm-1.8-.4c0-.9-.2-1.6-.5-2s-.8-.7-1.4-.7c-.6 0-1 .2-1.4.7s-.5 1.1-.5 2v.4c0 .9.2 1.5.5 2s.8.7 1.4.7c.6 0 1-.2 1.4-.7s.5-1.1.5-2v-.4zM27.7 31.2c-.1.9-.4 1.6-1 2.2-.6.6-1.4.8-2.4.8-1.1 0-2-.4-2.6-1.1s-.9-1.7-.9-3v-.5c0-.8.1-1.5.4-2.2s.7-1.1 1.2-1.4 1.2-.5 1.9-.5c1 0 1.8.3 2.4.8s.9 1.3 1 2.2h-1.8c0-.6-.2-1-.5-1.2s-.7-.4-1.2-.4c-.6 0-1 .2-1.3.6s-.4 1.1-.4 2v.6c0 .9.1 1.6.4 2s.7.6 1.3.6c.5 0 .9-.1 1.2-.4s.4-.6.5-1.2h1.8v.1z"/></g>
</symbol>

<symbol id="none" viewBox="0 0 32 39.9">
        <path fill="#B7B7B7" d="M29.6 39.9H2.5c-1.4 0-2.5-1.1-2.5-2.5V2.5C0 1.1 1.1 0 2.5 0H23c.2 0 .4.1.6.2l8.2 8.3c.2.2.2.4.2.6v28.4c.1 1.3-1 2.4-2.4 2.4zM2.5 1.6c-.5 0-.8.4-.8.8v34.9c0 .5.4.8.8.8h27.1c.5 0 .8-.4.8-.8v-28l-7.7-7.8c0 .1-20.2.1-20.2.1z"/><path  fill="#B7B7B7" d="M30.5 10.7h-7.6c-.5 0-.8-.4-.8-.8v-9c0-.5.4-.8.8-.8s.8.4.8.8V9h6.8c.5 0 .8.4.8.8s-.4.9-.8.9z"/>
</symbol>

<symbol id="pdf" viewBox="0 0 32 39.9">
        <path fill="#CE1B31" d="M29.5 39.9h-27c-1.4 0-2.5-1.1-2.5-2.5V2.5C0 1.1 1.1 0 2.5 0H23c.2 0 .4.1.6.2l8.2 8.3c.2.2.2.4.2.6v28.4c.1 1.3-1.1 2.4-2.5 2.4zM2.5 1.6c-.5 0-.8.4-.8.8v34.9c0 .5.4.8.8.8h27.1c.5 0 .8-.4.8-.8v-28l-7.7-7.8c0 .1-20.2.1-20.2.1z"/><path  fill="#CE1B31" d="M30.4 10.7h-7.6c-.5 0-.8-.4-.8-.8v-9c0-.5.4-.8.8-.8.5 0 .8.4.8.8V9h6.8c.5 0 .8.4.8.8s-.3.9-.8.9z"/><g><path  fill="#CE1B31" d="M7.5 31v3H5.7v-8.5H9c.6 0 1.2.1 1.7.4s.9.6 1.1 1 .4.9.4 1.5c0 .8-.3 1.5-.9 2s-1.4.7-2.4.7H7.5V31zm0-1.4h1.6c.5 0 .8-.1 1.1-.3s.4-.5.4-.9-.1-.8-.4-1-.6-.4-1-.4H7.6l-.1 2.6zM13.5 34v-8.5h2.6c.8 0 1.4.2 2 .5s1.1.8 1.4 1.4.5 1.3.5 2.1v.4c0 .8-.2 1.5-.5 2.1s-.8 1.1-1.4 1.4-1.3.5-2 .5l-2.6.1zm1.7-7.1v5.7h.8c.7 0 1.2-.2 1.6-.7s.5-1.1.6-1.9v-.5c0-.9-.2-1.5-.5-2s-.9-.7-1.6-.7h-.9v.1zM26.4 30.6H23v3.5h-1.8v-8.5h5.6V27H23v2.2h3.4v1.4z"/></g>
</symbol>

<symbol id="ppt" viewBox="0 0 32 40">
        <path fill="#D14424" d="M29.6 40H2.5C1.1 40 0 38.9 0 37.5v-35C0 1.1 1.1 0 2.5 0H23c.2 0 .4.1.6.2l8.2 8.3c.2.2.2.4.2.6v28.4c.1 1.3-1 2.5-2.4 2.5zM2.5 1.7c-.5 0-.8.4-.8.8v34.9c0 .5.4.8.8.8h27.1c.5 0 .8-.4.8-.8v-28l-7.7-7.8c0 .1-20.2.1-20.2.1z"/><path  fill="#D14424" d="M30.5 10.8h-7.6c-.5 0-.8-.4-.8-.8V1c0-.5.4-.8.8-.8s.8.4.8.8v8.1h6.8c.5 0 .8.4.8.8s-.4.9-.8.9z"/><g><path  fill="#D14424" d="M7.3 31.1v3H5.5v-8.5h3.3c.6 0 1.2.1 1.7.4s.9.6 1.1 1 .4.9.4 1.5c0 .8-.3 1.5-.9 2s-1.4.7-2.4.7H7.3v-.1zm0-1.4h1.6c.5 0 .8-.1 1.1-.3s.4-.5.4-.9-.1-.8-.4-1-.6-.4-1-.4H7.4v2.6h-.1zM15 31.1v3h-1.8v-8.5h3.3c.6 0 1.2.1 1.7.4s.9.6 1.1 1 .4.9.4 1.5c0 .8-.3 1.5-.9 2s-1.4.7-2.4.7H15v-.1zm0-1.4h1.6c.5 0 .8-.1 1.1-.3s.4-.5.4-.9-.1-.8-.4-1-.6-.4-1-.4h-1.6l-.1 2.6zM27.4 27h-2.6v7.1H23V27h-2.6v-1.4h6.9V27h.1z"/></g>
</symbol>

<symbol id="pptx" viewBox="0 0 32 40">
        <path fill="#D14424" d="M29.6 40H2.5C1.1 40 0 38.9 0 37.5v-35C0 1.1 1.1 0 2.5 0H23c.2 0 .4.1.6.2l8.2 8.3c.2.2.2.4.2.6v28.4c.1 1.3-1 2.5-2.4 2.5zM2.5 1.7c-.5 0-.8.4-.8.8v34.9c0 .5.4.8.8.8h27.1c.5 0 .8-.4.8-.8v-28l-7.7-7.8c0 .1-20.2.1-20.2.1z"/><path  fill="#D14424" d="M30.5 10.8h-7.6c-.5 0-.8-.4-.8-.8V1c0-.5.4-.8.8-.8s.8.4.8.8v8.1h6.8c.5 0 .8.4.8.8s-.4.9-.8.9z"/><g><path  fill="#D14424" d="M7.3 31.1v3H5.5v-8.5h3.3c.6 0 1.2.1 1.7.4s.9.6 1.1 1 .4.9.4 1.5c0 .8-.3 1.5-.9 2s-1.4.7-2.4.7H7.3v-.1zm0-1.4h1.6c.5 0 .8-.1 1.1-.3s.4-.5.4-.9-.1-.8-.4-1-.6-.4-1-.4H7.4v2.6h-.1zM15 31.1v3h-1.8v-8.5h3.3c.6 0 1.2.1 1.7.4s.9.6 1.1 1 .4.9.4 1.5c0 .8-.3 1.5-.9 2s-1.4.7-2.4.7H15v-.1zm0-1.4h1.6c.5 0 .8-.1 1.1-.3s.4-.5.4-.9-.1-.8-.4-1-.6-.4-1-.4h-1.6l-.1 2.6zM27.4 27h-2.6v7.1H23V27h-2.6v-1.4h6.9V27h.1z"/></g>
</symbol>

<symbol id="rar" viewBox="0 0 32 40">
        <path fill="#6F3684" d="M29.5 40h-27C1.1 40 0 38.9 0 37.5v-35C0 1.1 1.1 0 2.5 0H23c.2 0 .4.1.6.2l8.2 8.3c.2.2.2.4.2.6v28.4c.1 1.3-1.1 2.5-2.5 2.5zM2.5 1.7c-.5 0-.8.4-.8.8v34.9c0 .5.4.8.8.8h27c.5 0 .8-.4.8-.8v-28l-7.7-7.8c0 .1-20.1.1-20.1.1z"/><path  fill="#6F3684" d="M30.4 10.8h-7.6c-.5 0-.8-.4-.8-.8V1c0-.5.4-.8.8-.8.5 0 .8.4.8.8v8.1h6.8c.5 0 .8.4.8.8 0 .5-.3.9-.8.9z"/><g><path  fill="#6F3684" d="M8.2 31H6.8v3.1H5v-8.5h3.2c1 0 1.8.2 2.3.7s.8 1.1.8 1.9c0 .6-.1 1.1-.4 1.5s-.6.7-1.1.9l1.8 3.5H9.7L8.2 31zm-1.4-1.5h1.4c.4 0 .8-.1 1-.3s.4-.5.4-.9-.1-.7-.3-.9-.6-.3-1.1-.3H6.8v2.4zM17.5 32.3h-3.1l-.6 1.8h-1.9l3.2-8.5h1.6l3.2 8.5H18l-.5-1.8zm-2.6-1.4H17l-1.1-3.2-1 3.2zM23.9 31h-1.4v3.1h-1.8v-8.5h3.2c1 0 1.8.2 2.3.7s.8 1.1.8 1.9c0 .6-.1 1.1-.4 1.5s-.6.7-1.1.9l1.8 3.5h-1.8L23.9 31zm-1.4-1.5h1.4c.4 0 .8-.1 1-.3s.4-.5.4-.9-.1-.7-.3-.9-.6-.3-1.1-.3h-1.4v2.4z"/></g>
</symbol>

<symbol id="xls" viewBox="0 0 32 39.9">
        <path fill="#1F7244" d="M29.6 39.9H2.5c-1.4 0-2.5-1.1-2.5-2.5V2.5C0 1.1 1.1 0 2.5 0H23c.2 0 .4.1.6.2l8.2 8.3c.2.2.2.4.2.6v28.4c.1 1.3-1 2.4-2.4 2.4zM2.5 1.6c-.5 0-.8.4-.8.8v34.9c0 .5.4.8.8.8h27.1c.5 0 .8-.4.8-.8v-28l-7.7-7.8c0 .1-20.2.1-20.2.1z"/><path  fill="#1F7244" d="M30.5 10.7h-7.6c-.5 0-.8-.4-.8-.8v-9c0-.5.4-.8.8-.8s.8.4.8.8V9h6.8c.5 0 .8.4.8.8 0 .6-.4.9-.8.9z"/><g><path  fill="#1F7244" d="M9.1 28.5l1.6-2.9h2l-2.5 4.2 2.5 4.3h-2l-1.6-3-1.6 3h-2L8 29.8l-2.5-4.2h2l1.6 2.9zM15.4 32.6h3.7V34h-5.5v-8.5h1.8v7.1zM24.6 31.8c0-.3-.1-.6-.4-.8s-.7-.4-1.3-.6-1.1-.4-1.4-.6c-1-.5-1.5-1.2-1.5-2.1 0-.5.1-.9.4-1.2s.6-.6 1.1-.8 1-.3 1.6-.3 1.2.1 1.6.3.8.5 1.1.9.4.9.4 1.4h-1.8c0-.4-.1-.7-.4-.9s-.6-.3-1-.3-.8.1-1 .3-.4.4-.4.7.1.5.4.7.7.4 1.2.5c1 .3 1.7.7 2.2 1.1s.7 1 .7 1.7-.3 1.3-.8 1.7c-.5.4-1.3.6-2.3.6-.7 0-1.3-.1-1.8-.4s-1-.6-1.2-1-.4-.9-.4-1.5h1.8c0 .9.6 1.4 1.7 1.4.4 0 .7-.1 1-.3s.5-.2.5-.5z"/></g>
</symbol>

<symbol id="xlsx" viewBox="0 0 32 39.9">
        <path fill="#1F7244" d="M29.6 39.9H2.5c-1.4 0-2.5-1.1-2.5-2.5V2.5C0 1.1 1.1 0 2.5 0H23c.2 0 .4.1.6.2l8.2 8.3c.2.2.2.4.2.6v28.4c.1 1.3-1 2.4-2.4 2.4zM2.5 1.6c-.5 0-.8.4-.8.8v34.9c0 .5.4.8.8.8h27.1c.5 0 .8-.4.8-.8v-28l-7.7-7.8c0 .1-20.2.1-20.2.1z"/><path  fill="#1F7244" d="M30.5 10.7h-7.6c-.5 0-.8-.4-.8-.8v-9c0-.5.4-.8.8-.8s.8.4.8.8V9h6.8c.5 0 .8.4.8.8 0 .6-.4.9-.8.9z"/><g><path  fill="#1F7244" d="M9.1 28.5l1.6-2.9h2l-2.5 4.2 2.5 4.3h-2l-1.6-3-1.6 3h-2L8 29.8l-2.5-4.2h2l1.6 2.9zM15.4 32.6h3.7V34h-5.5v-8.5h1.8v7.1zM24.6 31.8c0-.3-.1-.6-.4-.8s-.7-.4-1.3-.6-1.1-.4-1.4-.6c-1-.5-1.5-1.2-1.5-2.1 0-.5.1-.9.4-1.2s.6-.6 1.1-.8 1-.3 1.6-.3 1.2.1 1.6.3.8.5 1.1.9.4.9.4 1.4h-1.8c0-.4-.1-.7-.4-.9s-.6-.3-1-.3-.8.1-1 .3-.4.4-.4.7.1.5.4.7.7.4 1.2.5c1 .3 1.7.7 2.2 1.1s.7 1 .7 1.7-.3 1.3-.8 1.7c-.5.4-1.3.6-2.3.6-.7 0-1.3-.1-1.8-.4s-1-.6-1.2-1-.4-.9-.4-1.5h1.8c0 .9.6 1.4 1.7 1.4.4 0 .7-.1 1-.3s.5-.2.5-.5z"/></g>
</symbol>

<symbol id="zip" viewBox="0 0 32 40">
        <path fill="#6F3684" d="M29.6 40H2.5C1.1 40 0 38.9 0 37.5v-35C0 1.1 1.1 0 2.5 0H23c.2 0 .4.1.6.2l8.2 8.3c.2.2.2.4.2.6v28.4c.1 1.3-1 2.5-2.4 2.5zM2.5 1.7c-.5 0-.8.4-.8.8v34.9c0 .5.4.8.8.8h27.1c.5 0 .8-.4.8-.8v-28l-7.7-7.8c0 .1-20.2.1-20.2.1z"/><path  fill="#6F3684" d="M30.5 10.8h-7.6c-.5 0-.8-.4-.8-.8V1c0-.5.4-.8.8-.8s.8.4.8.8v8.1h6.8c.5 0 .8.4.8.8s-.4.9-.8.9z"/><g><path  fill="#6F3684" d="M9.4 32.7h4.3v1.4H7.2v-1l4.2-6.1H7.2v-1.4h6.4v1l-4.2 6.1zM16.7 34.1h-1.8v-8.5h1.8v8.5zM20.1 31.1v3h-1.8v-8.5h3.3c.6 0 1.2.1 1.7.4s.9.6 1.1 1 .4.9.4 1.5c0 .8-.3 1.5-.9 2s-1.4.7-2.4.7h-1.4v-.1zm0-1.4h1.6c.5 0 .8-.1 1.1-.3s.4-.5.4-.9-.1-.8-.4-1-.6-.4-1-.4h-1.6v2.6h-.1z"/></g>
</symbol>
</svg>