<svg xmlns="http://www.w3.org/2000/svg" xmlns:xlink="http://www.w3.org/1999/xlink" width="0" height="0" style="position:absolute">
	
		<symbol id="arr" viewBox="0 0 48 28.2">
			<style>.st0{clip-path:url(#SVGID_2_)}</style><switch><g><defs><path id="SVGID_1_" d="M0 0h48v28.2H0z"></path></defs><clipPath id="SVGID_2_"><use xlink:href="#SVGID_1_"></use></clipPath><path class="st0" d="M47.1 5.1c1.2-1.2 1.2-3.1 0-4.2C45.9-.3 44-.3 42.9.9L24 19.7 5.1.9C4-.3 2.1-.3.9.9-.3 2.1-.3 4 .9 5.1L24 28.2 47.1 5.1z"></path></g></switch>
		</symbol>
	
		<symbol id="arr2" viewBox="0 0 45.3 22.1">
			<switch><g><path d="M45.3 11.1L34.3 0 32 2.3l7.1 7.1H0v3.3h39.1L32 19.8l2.3 2.3z"></path></g></switch>
		</symbol>
	
		<symbol id="close" viewBox="-256 256 512 512">
			<switch><g><path d="M60.9 512l182.5-182.5c16.8-16.8 16.8-44 0-60.8-16.8-16.8-44-16.8-60.8 0L0 451.2l-182.5-182.6c-16.8-16.8-44-16.8-60.8 0-16.8 16.8-16.8 44 0 60.8L-60.8 512l-182.5 182.5c-16.8 16.8-16.8 44 0 60.8 16.8 16.8 44 16.8 60.8 0L0 572.8l182.5 182.5c16.8 16.8 44 16.8 60.8 0 16.8-16.8 16.8-44 0-60.8L60.9 512z"></path></g></switch>
		</symbol>
	
		<symbol id="menu" viewBox="-297 420.9 124 124">
			<switch><g><path d="M-185 426.9h-100c-6.6 0-12 5.4-12 12s5.4 12 12 12h100c6.6 0 12-5.4 12-12s-5.4-12-12-12zM-185 470.9h-100c-6.6 0-12 5.4-12 12s5.4 12 12 12h100c6.6 0 12-5.4 12-12s-5.4-12-12-12zM-185 514.9h-100c-6.6 0-12 5.4-12 12s5.4 12 12 12h100c6.6 0 12-5.4 12-12s-5.4-12-12-12z"></path></g></switch>
		</symbol>
	
		<symbol id="ps-logo" viewBox="0 0 140.6 28.3">
			<style>.st0{clip-path:url(#SVGID_2_);fill:#3a3a3a}</style><switch><g><defs><path id="SVGID_1_" d="M0 0h140.6v28.3H0z"></path></defs><clipPath id="SVGID_2_"><use xlink:href="#SVGID_1_"></use></clipPath><path class="st0" d="M32.8 6.7h-3.5c-.7 0-1.1.4-1.1 1V19c0 .6.4 1 1 1s1-.4 1-1v-4h2.7c2.6 0 4-2.2 4-4.2.2-2.3-1.7-4.1-4.1-4.1m2.3 4.1c0 .9-.7 2.2-2 2.2h-2.7V8.7h2.7c1.2 0 2 1.1 2 2.1M46.5 18h-5.1V7.7c0-.6-.4-1-1-1s-1 .4-1 1v11c0 .8.4 1.3 1.2 1.3h5.8c.6 0 1-.4 1-1 .1-.6-.3-1-.9-1M71 16.9c-.3 0-.5.1-.7.3-.6.6-1.8 1.1-2.9 1.1-2.7 0-4.1-2.5-4.1-5 0-2.3 1.3-4.8 4.1-4.8 1 0 2.3.3 2.9 1 .2.2.5.3.8.3.6 0 1-.4 1-1 0-.3-.2-.6-.4-.9-1.2-1.1-2.9-1.5-4.2-1.5-4.1 0-6.2 3.5-6.2 7 0 3.3 1.9 6.9 6.1 6.9 1.5 0 3.2-.6 4.2-1.5.2-.2.4-.5.4-.9-.1-.6-.4-1-1-1M81.9 18h-5.5v-3.9h4.5c.6 0 1-.4 1-1s-.4-1-1-1h-4.5V8.7h5.3c.6 0 1-.4 1-1s-.4-1-1-1h-6.2c-.7 0-1.1.4-1.1 1.1v11c0 .7.2 1.1 1.1 1.1h6.4c.7 0 1.1-.4 1.1-1 0-.2-.1-.9-1.1-.9M91.4 12.9c-.3-.1-.6-.3-.8-.4l-.5-.3c-1.2-.6-2.2-1.2-2.2-1.9 0-1 .9-1.7 1.8-1.8 1.2 0 2 .5 2.6.9l.1.1c.2.1.5.3.8.3.5 0 1-.5 1-1s-.3-.8-.6-1.1c-.3-.2-1.7-1.2-3.5-1.2-2.5 0-4.2 1.6-4.2 3.9 0 2 2 3 3.8 3.9.3.1.6.3.9.4 1.2.5 2 .9 2 2s-.8 1.6-2.9 1.6c-.7 0-1.5-.2-2.1-.6-.3-.2-.5-.3-.8-.3-.6 0-1 .4-1 .9 0 .3.1.7.6 1.1.9.6 2 .9 3.2.9 3.2 0 5-1.3 5-3.7-.1-2.3-1.8-3-3.2-3.7M105.8 6.8h-8.4c-.7 0-1 .4-1 1s.4 1 1 1h3.2V19c0 .7.4 1.1 1 1.1s1-.4 1-1.1V8.8h3.2c.6 0 1-.4 1-1 .1-.6-.3-1-1-1M117.4 18.6l-4-10.8c-.2-.6-.7-1-1.3-1-.6 0-1.1.4-1.3 1L107 18.7c0 .1-.1.3-.1.5 0 .6.4 1 .9 1 .3 0 .8-.1 1.1-.9l1-2.7h4.5l1.2 3c.2.4.5.6 1 .6.6 0 .9-.4.9-.9 0-.3 0-.5-.1-.7m-3.6-4.1h-3.3l1.7-4.5 1.6 4.5zM126.1 14.6c1.7-.7 2.4-2.4 2.4-3.8 0-2-1.5-4.1-4.2-4.1h-3.2c-.9 0-1.3.5-1.3 1.5v10.6c0 1 .7 1.1 1 1.1.6 0 1-.4 1-1.1V15h2.3l2.6 4.5c.1.2.4.5.9.5s.9-.4.9-.9c0-.2-.1-.5-.2-.8l-2.2-3.7zm.4-3.7c0 .8-.6 2.2-2.1 2.2h-2.7V8.8h2.7c1.5 0 2.1 1.3 2.1 2.1M139.6 6.8h-8.4c-.7 0-1 .4-1 1s.4 1 1 1h3.2V19c0 .7.4 1.1 1 1.1s1-.4 1-1.1V8.8h3.2c.6 0 1-.4 1-1s-.3-1-1-1M59.8 18.6l-4-10.8c-.2-.6-.7-1-1.3-1-.6 0-1.1.4-1.3 1l-3.8 10.9c0 .1-.1.3-.1.5 0 .6.4 1 .9 1 .3 0 .8-.1 1.1-.9l1-2.7h4.5l1.2 3c.2.4.5.6 1 .6.6 0 .9-.4.9-.9 0-.3 0-.5-.1-.7m-3.7-4.2h-3.3l1.7-4.5 1.6 4.5zM19.5 3.4c-2.2-2.2-5-3.4-8-3.4h-.1C5.2 0 .1 5.1 0 11.3V27.1c0 .3.1.6.4.9.2.2.5.3.8.3.3 0 .6-.1.8-.3l5.8-5.7c.9.2 2.6.5 3.5.5h.1c6.1 0 11.3-5.2 11.4-11.3 0-3-1.1-5.9-3.3-8.1M11.4 21c-.8 0-2.3-.3-3.5-.6-.4-.1-.8 0-1.1.3l-5.1 5V11.2c.1-5.2 4.4-9.5 9.7-9.5h.1c2.6 0 5 1 6.8 2.9 1.8 1.8 2.8 4.3 2.8 6.8-.1 5.3-4.5 9.6-9.7 9.6"></path><path class="st0" d="M13.8 7c-.2-.1-.4-.1-.7-.1-.2.1-.4.2-.5.4-.1.2-.1.4-.1.7.1.2.2.4.4.5 1.1.6 1.7 1.7 1.7 2.9 0 1.8-1.5 3.3-3.3 3.3-1.8 0-3.3-1.5-3.3-3.3 0-1.1.6-2.2 1.5-2.8.4-.3.5-.8.3-1.2 0-.2-.2-.3-.5-.4-.2 0-.4 0-.6.1-1.5.9-2.4 2.5-2.4 4.3 0 2.8 2.3 5.1 5.1 5.1s5.1-2.3 5.1-5.1c0-1.8-1-3.5-2.7-4.4"></path><path class="st0" d="M11.3 5.7c-.5 0-.9.4-.9.9v3.7c0 .5.4.9.9.9s.9-.4.9-.9V6.6c0-.5-.4-.9-.9-.9"></path></g></switch>
		</symbol>
	
</svg>
